<svg xmlns="http://www.w3.org/2000/svg" xmlns:xlink="http://www.w3.org/1999/xlink" width="1080" zoomAndPan="magnify" viewBox="0 0 810 809.999993" height="1080" preserveAspectRatio="xMidYMid meet" version="1.0"><rect x="-81" width="972" fill="#ffffff" y="-80.999999" height="971.999992" fill-opacity="1"/><rect x="-81" width="972" fill="#ffffff" y="-80.999999" height="971.999992" fill-opacity="1"/><rect x="-81" width="972" fill="#ffffff" y="-80.999999" height="971.999992" fill-opacity="1"/><path stroke-linecap="round" transform="matrix(1.265625, 0, 0, 1.265625, 386.395297, 472.860284)" fill-opacity="1" fill="#ffffff" fill-rule="nonzero" stroke-linejoin="round" d="M 90.403721 -4.969854 C 90.403721 1.125825 82.514831 4.971504 74.264831 4.971504 C 74.264831 4.971504 -69.735176 4.971504 -69.735176 4.971504 C -86.201227 4.971504 -90.40493 -4.969854 -90.40493 -4.969854 " stroke="#161e4b" stroke-width="3" stroke-opacity="1" stroke-miterlimit="4"/><path stroke-linecap="round" transform="matrix(1.265625, 0, 0, 1.265625, 593.793262, 419.869799)" fill-opacity="1" fill="#ffffff" fill-rule="nonzero" stroke-linejoin="round" d="M -57.080481 -52.49898 C -57.080481 -52.49898 -57.080481 30.294235 -57.080481 30.294235 C -57.080481 32.991766 -54.895296 35.180037 -52.194678 35.180037 C -52.194678 35.180037 -16.11443 35.180037 -16.11443 35.180037 C -9.842824 35.180037 -0.14838 49.473248 3.441127 55.124483 C 4.336189 56.534977 5.891744 57.383742 7.561497 57.383742 C 7.561497 57.383742 52.194216 57.383742 52.194216 57.383742 C 54.891747 57.383742 57.083105 55.19547 57.083105 52.497939 C 57.083105 52.497939 57.083105 -12.582311 57.083105 -12.582311 C 57.083105 -13.838484 56.59545 -15.051447 55.72508 -15.958854 C 55.72508 -15.958854 17.539893 -55.875523 17.539893 -55.875523 C 16.617053 -56.841572 15.342362 -57.384782 14.009029 -57.384782 C 14.009029 -57.384782 -52.194678 -57.384782 -52.194678 -57.384782 C -54.895296 -57.384782 -57.080481 -55.196511 -57.080481 -52.49898 Z M -57.080481 -52.49898 " stroke="#161e4b" stroke-width="4" stroke-opacity="1" stroke-miterlimit="4"/><path fill="#161e4b" d="M 587.25 503.527344 C 587.25 521.144531 572.972656 535.421875 555.359375 535.421875 C 537.746094 535.421875 523.464844 521.144531 523.464844 503.527344 C 523.464844 485.914062 537.746094 471.636719 555.359375 471.636719 C 572.972656 471.636719 587.25 485.914062 587.25 503.527344 Z M 587.25 503.527344 " fill-opacity="1" fill-rule="nonzero"/><path fill="#161e4b" d="M 382.976562 503.527344 C 382.976562 521.144531 368.699219 535.421875 351.085938 535.421875 C 333.472656 535.421875 319.191406 521.144531 319.191406 503.527344 C 319.191406 485.914062 333.472656 471.636719 351.085938 471.636719 C 368.699219 471.636719 382.976562 485.914062 382.976562 503.527344 Z M 382.976562 503.527344 " fill-opacity="1" fill-rule="nonzero"/><path stroke-linecap="butt" transform="matrix(1.265625, 0, 0, 1.265625, 351.08562, 503.528899)" fill="none" stroke-linejoin="miter" d="M 16.324326 -0.00122858 C 16.324326 9.01729 9.015683 16.322846 0.000250677 16.322846 C -9.015182 16.322846 -16.323824 9.01729 -16.323824 -0.00122858 C -16.323824 -9.016661 -9.015182 -16.325303 0.000250677 -16.325303 C 9.015683 -16.325303 16.324326 -9.016661 16.324326 -0.00122858 Z M 16.324326 -0.00122858 " stroke="#ffffff" stroke-width="2" stroke-opacity="1" stroke-miterlimit="10"/><path stroke-linecap="butt" transform="matrix(1.265625, 0, 0, 1.265625, 555.358752, 503.528899)" fill="none" stroke-linejoin="miter" d="M 16.324567 -0.00122858 C 16.324567 9.01729 9.015925 16.322846 0.000492594 16.322846 C -9.01494 16.322846 -16.323582 9.01729 -16.323582 -0.00122858 C -16.323582 -9.016661 -9.01494 -16.325303 0.000492594 -16.325303 C 9.015925 -16.325303 16.324567 -9.016661 16.324567 -0.00122858 Z M 16.324567 -0.00122858 " stroke="#ffffff" stroke-width="2" stroke-opacity="1" stroke-miterlimit="10"/><path fill="#161e4b" d="M 533.308594 362.953125 C 533.308594 362.953125 533.308594 398.402344 533.308594 398.402344 C 533.308594 401.242188 535.609375 403.542969 538.449219 403.542969 C 538.449219 403.542969 624.878906 403.542969 624.878906 403.542969 C 635.738281 403.542969 641.332031 390.554688 633.867188 382.667969 C 633.867188 382.667969 611.867188 359.417969 611.867188 359.417969 C 610.894531 358.394531 609.546875 357.8125 608.132812 357.8125 C 608.132812 357.8125 538.449219 357.8125 538.449219 357.8125 C 535.609375 357.8125 533.308594 360.113281 533.308594 362.953125 Z M 533.308594 362.953125 " fill-opacity="1" fill-rule="nonzero"/><path fill="#161e4b" d="M 557.953125 419.871094 C 557.953125 419.871094 537.046875 419.871094 537.046875 419.871094 C 534.980469 419.871094 533.304688 418.195312 533.304688 416.128906 C 533.304688 414.0625 534.980469 412.390625 537.046875 412.390625 C 537.046875 412.390625 557.953125 412.390625 557.953125 412.390625 C 560.019531 412.390625 561.695312 414.0625 561.695312 416.128906 C 561.695312 418.195312 560.019531 419.871094 557.953125 419.871094 Z M 557.953125 419.871094 " fill-opacity="1" fill-rule="nonzero"/><path fill="#161e4b" d="M 595.03125 497.050781 C 595.03125 497.050781 668.800781 497.050781 668.800781 497.050781 C 671.050781 497.050781 672.878906 495.222656 672.878906 492.96875 C 672.878906 492.96875 672.878906 488.457031 672.878906 488.457031 C 672.878906 486.203125 671.050781 484.375 668.800781 484.375 C 668.800781 484.375 595.03125 484.375 595.03125 484.375 C 592.78125 484.375 590.953125 486.203125 590.953125 488.457031 C 590.953125 488.457031 590.953125 492.96875 590.953125 492.96875 C 590.953125 495.222656 592.78125 497.050781 595.03125 497.050781 Z M 595.03125 497.050781 " fill-opacity="1" fill-rule="nonzero"/><path stroke-linecap="round" transform="matrix(1.265625, 0, 0, 1.265625, 380.305122, 370.752189)" fill-opacity="1" fill="#5271ff" fill-rule="nonzero" stroke-linejoin="round" d="M 97.055217 75.708151 C 97.055217 75.708151 -97.052817 75.708151 -97.052817 75.708151 C -100.704052 75.708151 -103.660842 72.748274 -103.660842 69.09704 C -103.660842 69.09704 -103.660842 -69.097412 -103.660842 -69.097412 C -103.660842 -72.748646 -100.704052 -75.708523 -97.052817 -75.708523 C -97.052817 -75.708523 97.055217 -75.708523 97.055217 -75.708523 C 100.703365 -75.708523 103.663242 -72.748646 103.663242 -69.097412 C 103.663242 -69.097412 103.663242 69.09704 103.663242 69.09704 C 103.663242 72.748274 100.703365 75.708151 97.055217 75.708151 Z M 97.055217 75.708151 " stroke="#161e4b" stroke-width="4" stroke-opacity="1" stroke-miterlimit="4"/><path stroke-linecap="butt" transform="matrix(1.265625, 0, 0, 1.265625, 284.494765, 366.287082)" fill-opacity="1" fill="#ffffff" fill-rule="nonzero" stroke-linejoin="miter" d="M -8.816852 13.223787 C -9.455741 13.223787 -9.946482 13.029343 -10.289074 12.64354 C -10.631667 12.251565 -10.75821 11.785516 -10.665617 11.236133 C -10.665617 11.236133 -6.622407 -11.544732 -6.622407 -11.544732 C -6.50821 -12.11572 -6.29216 -12.53856 -5.971173 -12.813251 C -5.653272 -13.087942 -5.17179 -13.223745 -4.532901 -13.223745 C -4.532901 -13.223745 -2.511296 -13.223745 -2.511296 -13.223745 C -0.252037 -13.223745 1.747963 -12.942881 3.482531 -12.384239 C 5.220186 -11.825597 6.652285 -11.020041 7.781914 -9.970658 C 8.911544 -8.918189 9.710927 -7.643498 10.180063 -6.14967 C 10.649198 -4.652757 10.757223 -2.958312 10.507223 -1.06325 C 10.232532 0.992305 9.621421 2.890454 8.67389 4.625022 C 7.726359 6.35959 6.525741 7.875022 5.075124 9.165145 C 3.624507 10.455269 1.985618 11.455269 0.158457 12.162059 C -1.668703 12.868849 -3.606975 13.223787 -5.662531 13.223787 C -5.662531 13.223787 -8.816852 13.223787 -8.816852 13.223787 Z M -6.211914 9.591071 C -6.211914 9.591071 -5.662531 9.591071 -5.662531 9.591071 C -4.110062 9.591071 -2.644012 9.322553 -1.261296 8.785516 C 0.12142 8.251565 1.365247 7.501565 2.473272 6.541688 C 3.581297 5.584898 4.488704 4.458355 5.195494 3.168231 C 5.905371 1.878108 6.362161 0.47996 6.565865 -1.0293 C 6.79426 -2.785473 6.58747 -4.303991 5.948581 -5.584855 C 5.309692 -6.862633 4.288087 -7.850288 2.883766 -8.547819 C 1.479445 -9.24535 -0.252037 -9.594115 -2.307592 -9.594115 C -2.307592 -9.594115 -2.853889 -9.594115 -2.853889 -9.594115 C -2.853889 -9.594115 -6.211914 9.591071 -6.211914 9.591071 Z M -6.211914 9.591071 " stroke="#ffffff" stroke-width="1.488" stroke-opacity="1" stroke-miterlimit="10"/><path stroke-linecap="butt" transform="matrix(1.265625, 0, 0, 1.265625, 316.573288, 366.287082)" fill-opacity="1" fill="#ffffff" fill-rule="nonzero" stroke-linejoin="miter" d="M -9.323339 13.223787 C -9.919018 13.223787 -10.341858 13.032429 -10.591858 12.64354 C -10.841858 12.254652 -10.922105 11.77317 -10.832599 11.202182 C -10.832599 11.202182 -6.789389 -11.646584 -6.789389 -11.646584 C -6.675191 -12.217572 -6.446796 -12.624979 -6.104203 -12.862634 C -5.761611 -13.103374 -5.27087 -13.223745 -4.631981 -13.223745 C -4.631981 -13.223745 8.935921 -13.223745 8.935921 -13.223745 C 9.553205 -13.223745 10.037773 -13.057078 10.392711 -12.726831 C 10.744563 -12.393498 10.923575 -11.967572 10.923575 -11.44288 C 10.923575 -10.918189 10.729131 -10.476831 10.340242 -10.121893 C 9.951353 -9.766954 9.451353 -9.594115 8.834069 -9.594115 C 8.834069 -9.594115 -2.952969 -9.594115 -2.952969 -9.594115 C -2.952969 -9.594115 -6.341858 9.594158 -6.341858 9.594158 C -6.341858 9.594158 4.892711 9.594158 4.892711 9.594158 C 5.556291 9.594158 6.047032 9.791688 6.368019 10.192923 C 6.685921 10.591071 6.846414 11.032429 6.846414 11.510824 C 6.846414 12.035516 6.658143 12.452182 6.2816 12.760824 C 5.905056 13.069466 5.417402 13.223787 4.824809 13.223787 C 4.824809 13.223787 -9.323339 13.223787 -9.323339 13.223787 Z M -7.030129 1.714528 C -7.030129 1.714528 -6.378895 -1.748436 -6.378895 -1.748436 C -6.378895 -1.748436 5.750735 -1.748436 5.750735 -1.748436 C 6.343328 -1.748436 6.821723 -1.594115 7.189007 -1.285473 C 7.553205 -0.976831 7.73839 -0.557077 7.73839 -0.0323861 C 7.73839 0.446009 7.534686 0.856503 7.136538 1.199095 C 6.73839 1.541688 6.207526 1.714528 5.543945 1.714528 C 5.543945 1.714528 -7.030129 1.714528 -7.030129 1.714528 Z M -7.030129 1.714528 " stroke="#ffffff" stroke-width="1.488" stroke-opacity="1" stroke-miterlimit="10"/><path stroke-linecap="butt" transform="matrix(1.265625, 0, 0, 1.265625, 344.47399, 366.287082)" fill-opacity="1" fill="#ffffff" fill-rule="nonzero" stroke-linejoin="miter" d="M -7.149202 13.223787 C -7.741795 13.223787 -8.204758 13.035516 -8.535005 12.658973 C -8.868338 12.282429 -8.985622 11.807121 -8.896116 11.236133 C -8.896116 11.236133 -4.852906 -11.544732 -4.852906 -11.544732 C -4.738709 -12.140411 -4.464017 -12.566337 -4.028832 -12.828683 C -3.596733 -13.091029 -3.084387 -13.223745 -2.488708 -13.223745 C -1.964017 -13.223745 -1.5134 -13.081769 -1.136856 -12.794732 C -0.760313 -12.507695 -0.639943 -11.933621 -0.775745 -11.066337 C -0.775745 -11.066337 -4.442412 9.557121 -4.442412 9.557121 C -4.442412 9.557121 6.931045 9.557121 6.931045 9.557121 C 7.548329 9.557121 8.045243 9.736133 8.421786 10.087985 C 8.798329 10.442923 8.986601 10.85959 8.986601 11.341071 C 8.986601 11.841071 8.798329 12.282429 8.421786 12.658973 C 8.045243 13.035516 7.548329 13.223787 6.931045 13.223787 C 6.931045 13.223787 -7.149202 13.223787 -7.149202 13.223787 Z M -7.149202 13.223787 " stroke="#ffffff" stroke-width="1.488" stroke-opacity="1" stroke-miterlimit="10"/><path stroke-linecap="butt" transform="matrix(1.265625, 0, 0, 1.265625, 371.530533, 366.287082)" fill-opacity="1" fill="#ffffff" fill-rule="nonzero" stroke-linejoin="miter" d="M -5.9161 13.223787 C -6.419187 13.223787 -6.817335 13.047861 -7.113631 12.692923 C -7.409928 12.337985 -7.514866 11.921318 -7.422273 11.442923 C -7.332767 10.939837 -7.119804 10.501565 -6.786471 10.125022 C -6.45931 9.748479 -5.971656 9.557121 -5.332767 9.557121 C -5.332767 9.557121 1.895628 9.557121 1.895628 9.557121 C 2.42032 9.557121 2.803036 9.748479 3.043777 10.125022 C 3.284517 10.501565 3.355505 10.939837 3.265999 11.442923 C 3.198098 11.921318 3.025258 12.337985 2.753653 12.692923 C 2.478962 13.047861 1.99748 13.223787 1.312295 13.223787 C 1.312295 13.223787 -5.9161 13.223787 -5.9161 13.223787 Z M -4.135236 11.646627 C -4.135236 11.646627 -0.0920259 -11.680535 -0.0920259 -11.680535 C -0.0920259 -11.680535 4.019085 -11.680535 4.019085 -11.680535 C 4.019085 -11.680535 -0.0241247 11.646627 -0.0241247 11.646627 C -0.0241247 11.646627 -4.135236 11.646627 -4.135236 11.646627 Z M -1.83894 -9.557078 C -2.317335 -9.557078 -2.700051 -9.757695 -2.984001 -10.15893 C -3.271038 -10.557078 -3.366717 -10.99535 -3.277211 -11.476831 C -3.184619 -11.979918 -2.984001 -12.396584 -2.678446 -12.726831 C -2.369804 -13.057078 -1.906841 -13.223745 -1.289557 -13.223745 C -1.289557 -13.223745 5.972789 -13.223745 5.972789 -13.223745 C 6.429579 -13.223745 6.806123 -13.057078 7.102419 -12.726831 C 7.398715 -12.396584 7.515999 -11.979918 7.445011 -11.476831 C 7.355505 -10.99535 7.154888 -10.557078 6.846246 -10.15893 C 6.537604 -9.757695 6.053036 -9.557078 5.392542 -9.557078 C 5.392542 -9.557078 -1.83894 -9.557078 -1.83894 -9.557078 Z M -1.83894 -9.557078 " stroke="#ffffff" stroke-width="1.488" stroke-opacity="1" stroke-miterlimit="10"/><path stroke-linecap="butt" transform="matrix(1.265625, 0, 0, 1.265625, 397.960589, 366.33009)" fill-opacity="1" fill="#ffffff" fill-rule="nonzero" stroke-linejoin="miter" d="M -5.147873 13.257707 C -5.715774 13.257707 -6.191083 13.075608 -6.567626 12.711411 C -6.944169 12.347213 -7.144787 11.912028 -7.169478 11.408942 C -7.169478 11.408942 -8.468861 -11.405874 -8.468861 -11.405874 C -8.515157 -12.001553 -8.360836 -12.458344 -8.005898 -12.779331 C -7.654046 -13.097233 -7.191083 -13.257726 -6.620095 -13.257726 C -5.956515 -13.257726 -5.450342 -13.103405 -5.095404 -12.794763 C -4.743552 -12.486121 -4.55528 -12.103405 -4.530589 -11.646615 C -4.530589 -11.646615 -3.706515 5.378077 -3.706515 5.378077 C -3.706515 5.378077 -4.015157 5.242275 -4.015157 5.242275 C -4.015157 5.242275 4.308917 -11.955257 4.308917 -11.955257 C 4.491016 -12.365751 4.784226 -12.686739 5.182374 -12.915134 C 5.580522 -13.143529 6.06509 -13.257726 6.636078 -13.257726 C 7.299658 -13.257726 7.808918 -13.035504 8.16077 -12.59106 C 8.515708 -12.143529 8.509535 -11.566368 8.145337 -10.859578 C 8.145337 -10.859578 -3.058367 11.822522 -3.058367 11.822522 C -3.262071 12.186719 -3.515157 12.516966 -3.811453 12.813263 C -4.10775 13.109559 -4.552194 13.257707 -5.147873 13.257707 Z M -5.147873 13.257707 " stroke="#ffffff" stroke-width="1.488" stroke-opacity="1" stroke-miterlimit="10"/><path stroke-linecap="butt" transform="matrix(1.265625, 0, 0, 1.265625, 423.493278, 366.287082)" fill-opacity="1" fill="#ffffff" fill-rule="nonzero" stroke-linejoin="miter" d="M -9.324936 13.223787 C -9.917529 13.223787 -10.340368 13.032429 -10.590368 12.64354 C -10.843455 12.254652 -10.923702 11.77317 -10.831109 11.202182 C -10.831109 11.202182 -6.787899 -11.646584 -6.787899 -11.646584 C -6.673702 -12.217572 -6.445307 -12.624979 -6.102714 -12.862634 C -5.760121 -13.103374 -5.269381 -13.223745 -4.630492 -13.223745 C -4.630492 -13.223745 8.93741 -13.223745 8.93741 -13.223745 C 9.551608 -13.223745 10.039262 -13.057078 10.3942 -12.726831 C 10.746052 -12.393498 10.921978 -11.967572 10.921978 -11.44288 C 10.921978 -10.918189 10.727534 -10.476831 10.341731 -10.121893 C 9.952842 -9.766954 9.449756 -9.594115 8.832472 -9.594115 C 8.832472 -9.594115 -2.951479 -9.594115 -2.951479 -9.594115 C -2.951479 -9.594115 -6.343455 9.594158 -6.343455 9.594158 C -6.343455 9.594158 4.8942 9.594158 4.8942 9.594158 C 5.554694 9.594158 6.048521 9.791688 6.366422 10.192923 C 6.68741 10.591071 6.847904 11.032429 6.847904 11.510824 C 6.847904 12.035516 6.659632 12.452182 6.283089 12.760824 C 5.90346 13.069466 5.418892 13.223787 4.826299 13.223787 C 4.826299 13.223787 -9.324936 13.223787 -9.324936 13.223787 Z M -7.02864 1.714528 C -7.02864 1.714528 -6.377405 -1.748436 -6.377405 -1.748436 C -6.377405 -1.748436 5.749139 -1.748436 5.749139 -1.748436 C 6.344818 -1.748436 6.823213 -1.594115 7.190497 -1.285473 C 7.554694 -0.976831 7.736793 -0.557077 7.736793 -0.0323861 C 7.736793 0.446009 7.536176 0.856503 7.138027 1.199095 C 6.736793 1.541688 6.205929 1.714528 5.545435 1.714528 C 5.545435 1.714528 -7.02864 1.714528 -7.02864 1.714528 Z M -7.02864 1.714528 " stroke="#ffffff" stroke-width="1.488" stroke-opacity="1" stroke-miterlimit="10"/><path stroke-linecap="butt" transform="matrix(1.265625, 0, 0, 1.265625, 453.477221, 366.287082)" fill-opacity="1" fill="#ffffff" fill-rule="nonzero" stroke-linejoin="miter" d="M -8.895582 13.223787 C -9.534471 13.223787 -9.978916 13.007738 -10.232002 12.572553 C -10.482002 12.140454 -10.562249 11.625022 -10.472743 11.032429 C -10.472743 11.032429 -6.497434 -11.544732 -6.497434 -11.544732 C -6.383236 -12.140411 -6.142496 -12.566337 -5.778298 -12.828683 C -5.414101 -13.091029 -4.911014 -13.223745 -4.269039 -13.223745 C -0.960397 -13.223745 1.832813 -12.983004 4.107505 -12.504609 C 6.37911 -12.026214 8.051949 -11.242263 9.122937 -10.15893 C 10.197011 -9.07251 10.564295 -7.61572 10.221703 -5.788559 C 9.900715 -3.98609 9.21553 -2.550905 8.166147 -1.489176 C 7.113678 -0.427448 5.801949 0.365762 4.224789 0.890453 C 2.647628 1.415145 0.906887 1.751565 -1.00052 1.902799 C -2.904841 2.050947 -4.877064 2.125021 -6.907928 2.125021 C -6.907928 2.125021 -6.324594 -1.541645 -6.324594 -1.541645 C -4.682619 -1.541645 -3.136323 -1.603374 -1.682619 -1.729917 C -0.235088 -1.85646 1.061208 -2.07251 2.203184 -2.381152 C 3.345159 -2.689794 4.271085 -3.128065 4.980962 -3.699053 C 5.687752 -4.270041 6.119851 -5.001522 6.280344 -5.893497 C 6.440838 -6.73609 6.264912 -7.427448 5.74948 -7.964485 C 5.237135 -8.501522 4.298863 -8.905843 2.940838 -9.180535 C 1.579727 -9.455226 -0.309162 -9.581769 -2.728915 -9.557078 C -2.728915 -9.557078 -6.358545 11.06638 -6.358545 11.06638 C -6.451138 11.680577 -6.738175 12.19601 -7.21657 12.606503 C -7.698051 13.020084 -8.256693 13.223787 -8.895582 13.223787 Z M 5.252567 13.223787 C 5.002567 13.223787 4.681579 13.168232 4.29269 13.054034 C 3.903801 12.939837 3.527258 12.68675 3.16306 12.297861 C 3.16306 12.297861 -7.182619 0.273169 -7.182619 0.273169 C -7.182619 0.273169 -1.941878 0.273169 -1.941878 0.273169 C -1.941878 0.273169 6.246394 9.591071 6.246394 9.591071 C 6.817382 10.233047 7.0859 10.831812 7.051949 11.390454 C 7.017999 11.952182 6.817382 12.396627 6.453184 12.726874 C 6.0859 13.060207 5.687752 13.223787 5.252567 13.223787 Z M 5.252567 13.223787 " stroke="#ffffff" stroke-width="1.488" stroke-opacity="1" stroke-miterlimit="10"/><path stroke-linecap="butt" transform="matrix(1.265625, 0, 0, 1.265625, 483.800307, 366.33009)" fill-opacity="1" fill="#ffffff" fill-rule="nonzero" stroke-linejoin="miter" d="M -4.042835 13.257707 C -4.681724 13.257707 -5.190984 13.060176 -5.567527 12.658942 C -5.94407 12.260793 -6.086045 11.773139 -5.996539 11.202151 C -5.996539 11.202151 -4.076786 0.0694348 -4.076786 0.0694348 C -4.076786 0.0694348 -8.221848 -10.652788 -8.221848 -10.652788 C -8.314441 -10.881183 -8.376169 -11.069455 -8.41012 -11.217603 C -8.44407 -11.365751 -8.462589 -11.544763 -8.462589 -11.748467 C -8.462589 -12.183652 -8.249626 -12.541677 -7.826786 -12.828714 C -7.407033 -13.112665 -6.897774 -13.257726 -6.305181 -13.257726 C -5.869996 -13.257726 -5.521231 -13.152788 -5.258885 -12.949084 C -4.996539 -12.742294 -4.774317 -12.424393 -4.592218 -11.989208 C -4.592218 -11.989208 -1.098391 -2.773158 -1.098391 -2.773158 C -1.098391 -2.773158 -2.089132 -2.912047 -2.089132 -2.912047 C -2.089132 -2.912047 4.796671 -12.399702 4.796671 -12.399702 C 4.97877 -12.674393 5.225683 -12.887356 5.531239 -13.035504 C 5.839881 -13.180566 6.154696 -13.257726 6.475684 -13.257726 C 6.839881 -13.257726 7.262721 -13.103405 7.741116 -12.794763 C 8.222597 -12.486121 8.463338 -12.069455 8.463338 -11.544763 C 8.463338 -11.109578 8.302844 -10.665134 7.981856 -10.208344 C 7.981856 -10.208344 0.0343252 0.344126 0.0343252 0.344126 C 0.0343252 0.344126 -1.919379 11.544744 -1.919379 11.544744 C -2.011971 11.979929 -2.209502 12.374991 -2.518144 12.726843 C -2.826786 13.081781 -3.336045 13.257707 -4.042835 13.257707 Z M -4.042835 13.257707 " stroke="#ffffff" stroke-width="1.488" stroke-opacity="1" stroke-miterlimit="10"/><path fill="#9467f8" d="M 303.03125 536.355469 C 303.03125 536.355469 230.675781 536.355469 230.675781 536.355469 C 230.675781 536.355469 230.675781 454.21875 230.675781 454.21875 C 230.675781 454.21875 303.03125 454.21875 303.03125 454.21875 C 303.03125 454.21875 303.03125 536.355469 303.03125 536.355469 Z M 303.03125 536.355469 " fill-opacity="1" fill-rule="nonzero"/><path stroke-linecap="butt" transform="matrix(1.265625, 0, 0, 1.265625, 80.999999, 81.000016)" fill="none" stroke-linejoin="round" d="M 158.166675 294.888891 C 158.166675 294.888891 158.166675 359.787043 158.166675 359.787043 " stroke="#161e4b" stroke-width="3.461" stroke-opacity="1" stroke-miterlimit="4"/><path fill="#161e4b" d="M 263.835938 480.800781 C 263.835938 480.800781 246.339844 480.800781 246.339844 480.800781 C 246.339844 480.800781 246.339844 454.21875 246.339844 454.21875 C 246.339844 454.21875 263.835938 454.21875 263.835938 454.21875 C 263.835938 454.21875 263.835938 480.800781 263.835938 480.800781 Z M 263.835938 480.800781 " fill-opacity="1" fill-rule="nonzero"/><path fill="#bbc97b" d="M 218.921875 536.355469 C 218.921875 536.355469 137.265625 536.355469 137.265625 536.355469 C 137.265625 536.355469 137.265625 422.996094 137.265625 422.996094 C 137.265625 422.996094 218.921875 422.996094 218.921875 422.996094 C 218.921875 422.996094 218.921875 536.355469 218.921875 536.355469 Z M 218.921875 536.355469 " fill-opacity="1" fill-rule="nonzero"/><path stroke-linecap="butt" transform="matrix(1.268129, 0, 0, 1.260502, 80.807877, 82.843259)" fill="none" stroke-linejoin="round" d="M 58.502095 269.855107 C 58.502095 269.855107 58.502095 359.787052 58.502095 359.787052 " stroke="#161e4b" stroke-width="3.461" stroke-opacity="1" stroke-miterlimit="4"/><path fill="#161e4b" d="M 195.625 449.472656 C 195.625 449.472656 178.09375 449.472656 178.09375 449.472656 C 178.09375 449.472656 178.09375 422.996094 178.09375 422.996094 C 178.09375 422.996094 195.625 422.996094 195.625 422.996094 C 195.625 422.996094 195.625 449.472656 195.625 449.472656 Z M 195.625 449.472656 " fill-opacity="1" fill-rule="nonzero"/><path fill="#5271ff" d="M 258.007812 536.355469 C 258.007812 536.355469 145.890625 536.355469 145.890625 536.355469 C 145.890625 536.355469 145.890625 475.898438 145.890625 475.898438 C 145.890625 475.898438 258.007812 475.898438 258.007812 475.898438 C 258.007812 475.898438 258.007812 536.355469 258.007812 536.355469 Z M 258.007812 536.355469 " fill-opacity="1" fill-rule="nonzero"/><path stroke-linecap="butt" transform="matrix(1.265625, 0, 0, 1.265625, 80.999999, 81.000016)" fill="none" stroke-linejoin="round" d="M 76.716054 312.015435 C 76.716054 312.015435 76.716054 359.787043 76.716054 359.787043 " stroke="#161e4b" stroke-width="3.461" stroke-opacity="1" stroke-miterlimit="4"/><path fill="#161e4b" d="M 230.65625 502.476562 C 230.65625 502.476562 213.160156 502.476562 213.160156 502.476562 C 213.160156 502.476562 213.160156 475.894531 213.160156 475.894531 C 213.160156 475.894531 230.65625 475.894531 230.65625 475.894531 C 230.65625 475.894531 230.65625 502.476562 230.65625 502.476562 Z M 230.65625 502.476562 " fill-opacity="1" fill-rule="nonzero"/></svg>